<mxfile host="65bd71144e">
    <diagram id="2xVucQChN6g5gajmQN6g" name="Page-1">
        <mxGraphModel dx="2876" dy="1334" grid="1" gridSize="10" guides="1" tooltips="1" connect="1" arrows="1" fold="1" page="0" pageScale="1" pageWidth="850" pageHeight="1100" background="none" math="0" shadow="0">
            <root>
                <mxCell id="0"/>
                <mxCell id="1" parent="0"/>
                <mxCell id="4" value="Client" style="swimlane;movable=1;resizable=1;rotatable=1;deletable=1;editable=1;connectable=1;" parent="1" vertex="1">
                    <mxGeometry x="-80" y="60" width="540" height="1500" as="geometry"/>
                </mxCell>
                <mxCell id="16" style="edgeStyle=elbowEdgeStyle;html=1;entryX=0.5;entryY=0;entryDx=0;entryDy=0;" parent="4" source="7" target="14" edge="1">
                    <mxGeometry relative="1" as="geometry"/>
                </mxCell>
                <mxCell id="7" value="" style="ellipse;fillColor=strokeColor;" parent="4" vertex="1">
                    <mxGeometry x="260" y="50" width="30" height="30" as="geometry"/>
                </mxCell>
                <mxCell id="14" value="Kết nối đến server" style="rounded=1;whiteSpace=wrap;html=1;" parent="4" vertex="1">
                    <mxGeometry x="215" y="280" width="120" height="60" as="geometry"/>
                </mxCell>
                <mxCell id="20" value="Không" style="edgeStyle=elbowEdgeStyle;html=1;entryX=0;entryY=0.5;entryDx=0;entryDy=0;exitX=0;exitY=0.5;exitDx=0;exitDy=0;" parent="4" source="19" target="14" edge="1">
                    <mxGeometry relative="1" as="geometry">
                        <Array as="points">
                            <mxPoint x="70" y="370"/>
                        </Array>
                    </mxGeometry>
                </mxCell>
                <mxCell id="25" style="edgeStyle=none;html=1;entryX=0.5;entryY=0;entryDx=0;entryDy=0;" parent="4" source="19" target="24" edge="1">
                    <mxGeometry relative="1" as="geometry"/>
                </mxCell>
                <mxCell id="19" value="Kết nối được chấp nhận?" style="rhombus;whiteSpace=wrap;html=1;" parent="4" vertex="1">
                    <mxGeometry x="180" y="390" width="190" height="80" as="geometry"/>
                </mxCell>
                <mxCell id="34" style="edgeStyle=elbowEdgeStyle;html=1;entryX=0.5;entryY=0;entryDx=0;entryDy=0;" parent="4" source="24" target="33" edge="1">
                    <mxGeometry relative="1" as="geometry"/>
                </mxCell>
                <mxCell id="24" value="Chuyển đổi file XLSX thành CSV" style="rounded=1;whiteSpace=wrap;html=1;" parent="4" vertex="1">
                    <mxGeometry x="215" y="520" width="120" height="110" as="geometry"/>
                </mxCell>
                <mxCell id="41" style="edgeStyle=elbowEdgeStyle;html=1;entryX=0.5;entryY=0;entryDx=0;entryDy=0;" parent="4" source="33" target="40" edge="1">
                    <mxGeometry relative="1" as="geometry">
                        <Array as="points">
                            <mxPoint x="105" y="740"/>
                        </Array>
                    </mxGeometry>
                </mxCell>
                <mxCell id="33" value="Gửi cho server số lượng phòng thi và số lượng cán bộ" style="rounded=1;whiteSpace=wrap;html=1;" parent="4" vertex="1">
                    <mxGeometry x="212.5" y="700" width="125" height="80" as="geometry"/>
                </mxCell>
                <mxCell id="45" value="Yes" style="edgeStyle=elbowEdgeStyle;html=1;entryX=0.5;entryY=0;entryDx=0;entryDy=0;" parent="4" source="40" target="42" edge="1">
                    <mxGeometry x="-0.1995" relative="1" as="geometry">
                        <mxPoint as="offset"/>
                    </mxGeometry>
                </mxCell>
                <mxCell id="51" value="No" style="edgeStyle=elbowEdgeStyle;html=1;entryX=0;entryY=0.5;entryDx=0;entryDy=0;" parent="4" source="40" target="49" edge="1">
                    <mxGeometry relative="1" as="geometry"/>
                </mxCell>
                <mxCell id="40" value="Đã lấy hết dữ liệu cán bộ?" style="rhombus;whiteSpace=wrap;html=1;" parent="4" vertex="1">
                    <mxGeometry x="25" y="830" width="160" height="120" as="geometry"/>
                </mxCell>
                <mxCell id="46" value="Yes" style="edgeStyle=elbowEdgeStyle;html=1;" parent="4" source="42" target="43" edge="1">
                    <mxGeometry relative="1" as="geometry"/>
                </mxCell>
                <mxCell id="52" value="No" style="edgeStyle=elbowEdgeStyle;html=1;entryX=0;entryY=0.5;entryDx=0;entryDy=0;" parent="4" source="42" target="50" edge="1">
                    <mxGeometry relative="1" as="geometry"/>
                </mxCell>
                <mxCell id="42" value="Đã lấy hết dữ liệu phòng?" style="rhombus;whiteSpace=wrap;html=1;" parent="4" vertex="1">
                    <mxGeometry x="38.75" y="1000" width="132.5" height="120" as="geometry"/>
                </mxCell>
                <mxCell id="43" value="Xác nhận kết thúc gửi file và chờ kết quả từ server" style="rounded=1;whiteSpace=wrap;html=1;" parent="4" vertex="1">
                    <mxGeometry x="30" y="1190" width="150" height="60" as="geometry"/>
                </mxCell>
                <mxCell id="55" style="edgeStyle=elbowEdgeStyle;html=1;entryX=0;entryY=0.5;entryDx=0;entryDy=0;" parent="4" source="49" target="54" edge="1">
                    <mxGeometry relative="1" as="geometry"/>
                </mxCell>
                <mxCell id="49" value="Lấy dữ liệu cán bộ tiếp theo" style="rounded=1;whiteSpace=wrap;html=1;" parent="4" vertex="1">
                    <mxGeometry x="230" y="860" width="120" height="60" as="geometry"/>
                </mxCell>
                <mxCell id="56" style="edgeStyle=elbowEdgeStyle;html=1;" parent="4" source="50" target="53" edge="1">
                    <mxGeometry relative="1" as="geometry"/>
                </mxCell>
                <mxCell id="50" value="Lấy dữ liệu phòng thi tiếp theo" style="rounded=1;whiteSpace=wrap;html=1;" parent="4" vertex="1">
                    <mxGeometry x="230" y="1030" width="120" height="60" as="geometry"/>
                </mxCell>
                <mxCell id="61" style="edgeStyle=orthogonalEdgeStyle;html=1;entryX=0.5;entryY=0;entryDx=0;entryDy=0;" parent="4" source="53" target="40" edge="1">
                    <mxGeometry relative="1" as="geometry">
                        <Array as="points">
                            <mxPoint x="490" y="1060"/>
                            <mxPoint x="490" y="800"/>
                            <mxPoint x="105" y="800"/>
                        </Array>
                    </mxGeometry>
                </mxCell>
                <mxCell id="53" value="Gửi dữ liệu lên server" style="rounded=1;whiteSpace=wrap;html=1;" parent="4" vertex="1">
                    <mxGeometry x="390" y="1030" width="80" height="60" as="geometry"/>
                </mxCell>
                <mxCell id="60" style="edgeStyle=orthogonalEdgeStyle;html=1;entryX=0.5;entryY=0;entryDx=0;entryDy=0;" parent="4" source="54" target="42" edge="1">
                    <mxGeometry relative="1" as="geometry">
                        <Array as="points">
                            <mxPoint x="430" y="980"/>
                            <mxPoint x="105" y="980"/>
                        </Array>
                    </mxGeometry>
                </mxCell>
                <mxCell id="54" value="Gửi dữ liệu lên server" style="rounded=1;whiteSpace=wrap;html=1;" parent="4" vertex="1">
                    <mxGeometry x="390" y="860" width="80" height="60" as="geometry"/>
                </mxCell>
                <mxCell id="5" value="Server" style="swimlane;movable=1;resizable=1;rotatable=1;deletable=1;editable=1;connectable=1;" parent="1" vertex="1">
                    <mxGeometry x="530" y="60" width="1660" height="2220" as="geometry"/>
                </mxCell>
                <mxCell id="11" style="edgeStyle=none;html=1;" parent="5" source="8" target="9" edge="1">
                    <mxGeometry relative="1" as="geometry"/>
                </mxCell>
                <mxCell id="8" value="" style="ellipse;fillColor=strokeColor;" parent="5" vertex="1">
                    <mxGeometry x="275" y="50" width="30" height="30" as="geometry"/>
                </mxCell>
                <mxCell id="12" style="edgeStyle=none;html=1;entryX=0.5;entryY=0;entryDx=0;entryDy=0;" parent="5" source="9" target="10" edge="1">
                    <mxGeometry relative="1" as="geometry"/>
                </mxCell>
                <mxCell id="9" value="Lắng nghe kết nối đến" style="rounded=1;whiteSpace=wrap;html=1;" parent="5" vertex="1">
                    <mxGeometry x="230" y="150" width="120" height="60" as="geometry"/>
                </mxCell>
                <mxCell id="13" value="Không" style="edgeStyle=elbowEdgeStyle;html=1;entryX=1;entryY=0.5;entryDx=0;entryDy=0;exitX=1;exitY=0.5;exitDx=0;exitDy=0;" parent="5" source="10" target="9" edge="1">
                    <mxGeometry relative="1" as="geometry">
                        <Array as="points">
                            <mxPoint x="390" y="250"/>
                        </Array>
                    </mxGeometry>
                </mxCell>
                <mxCell id="18" style="edgeStyle=elbowEdgeStyle;html=1;" parent="5" source="10" target="17" edge="1">
                    <mxGeometry relative="1" as="geometry"/>
                </mxCell>
                <mxCell id="10" value="Có kết nối đến" style="rhombus;whiteSpace=wrap;html=1;" parent="5" vertex="1">
                    <mxGeometry x="220" y="270" width="140" height="80" as="geometry"/>
                </mxCell>
                <mxCell id="37" style="edgeStyle=elbowEdgeStyle;html=1;entryX=0.5;entryY=0;entryDx=0;entryDy=0;" parent="5" source="17" target="35" edge="1">
                    <mxGeometry relative="1" as="geometry">
                        <Array as="points">
                            <mxPoint x="325" y="580"/>
                        </Array>
                    </mxGeometry>
                </mxCell>
                <mxCell id="17" value="Chấp nhận kết nối" style="rounded=1;whiteSpace=wrap;html=1;" parent="5" vertex="1">
                    <mxGeometry x="230" y="400" width="120" height="60" as="geometry"/>
                </mxCell>
                <mxCell id="67" style="edgeStyle=elbowEdgeStyle;html=1;entryX=0.5;entryY=0;entryDx=0;entryDy=0;" parent="5" source="35" target="66" edge="1">
                    <mxGeometry relative="1" as="geometry"/>
                </mxCell>
                <mxCell id="35" value="Tính ra số lượng giám sát hành lang S và số lượng phòng cho mỗi giám sát R" style="rounded=1;whiteSpace=wrap;html=1;" parent="5" vertex="1">
                    <mxGeometry x="140" y="710" width="370" height="60" as="geometry"/>
                </mxCell>
                <mxCell id="92" style="edgeStyle=elbowEdgeStyle;html=1;entryX=0.5;entryY=0;entryDx=0;entryDy=0;exitX=0;exitY=0.75;exitDx=0;exitDy=0;" edge="1" parent="5" source="66" target="91">
                    <mxGeometry relative="1" as="geometry">
                        <Array as="points">
                            <mxPoint x="90" y="1020"/>
                        </Array>
                    </mxGeometry>
                </mxCell>
                <mxCell id="66" value="Nhận dữ liệu từ client" style="rounded=1;whiteSpace=wrap;html=1;" parent="5" vertex="1">
                    <mxGeometry x="235" y="940" width="110" height="60" as="geometry"/>
                </mxCell>
                <mxCell id="73" value="Yes" style="edgeStyle=orthogonalEdgeStyle;html=1;" edge="1" parent="5" source="70" target="76">
                    <mxGeometry relative="1" as="geometry">
                        <mxPoint x="270" y="1100" as="targetPoint"/>
                    </mxGeometry>
                </mxCell>
                <mxCell id="100" value="No" style="edgeStyle=elbowEdgeStyle;html=1;entryX=0.5;entryY=0;entryDx=0;entryDy=0;" edge="1" parent="5" source="70" target="101">
                    <mxGeometry x="-0.9194" relative="1" as="geometry">
                        <mxPoint x="470" y="1355" as="targetPoint"/>
                        <Array as="points">
                            <mxPoint x="265" y="1240"/>
                        </Array>
                        <mxPoint y="1" as="offset"/>
                    </mxGeometry>
                </mxCell>
                <mxCell id="70" value="Data &lt;br&gt;của một cán bộ?" style="rhombus;whiteSpace=wrap;html=1;" vertex="1" parent="5">
                    <mxGeometry x="190" y="1050" width="150" height="100" as="geometry"/>
                </mxCell>
                <mxCell id="79" value="No" style="edgeStyle=orthogonalEdgeStyle;html=1;" edge="1" parent="5" source="76" target="77">
                    <mxGeometry relative="1" as="geometry"/>
                </mxCell>
                <mxCell id="94" value="Yes" style="edgeStyle=elbowEdgeStyle;html=1;entryX=0.5;entryY=1;entryDx=0;entryDy=0;" edge="1" parent="5" source="76" target="85">
                    <mxGeometry x="-0.9462" relative="1" as="geometry">
                        <Array as="points">
                            <mxPoint x="940" y="1220"/>
                        </Array>
                        <mxPoint as="offset"/>
                    </mxGeometry>
                </mxCell>
                <mxCell id="76" value="S=0?" style="rhombus;whiteSpace=wrap;html=1;" vertex="1" parent="5">
                    <mxGeometry x="420" y="1060" width="110" height="80" as="geometry"/>
                </mxCell>
                <mxCell id="81" style="edgeStyle=orthogonalEdgeStyle;html=1;entryX=0;entryY=0.5;entryDx=0;entryDy=0;" edge="1" parent="5" source="77" target="80">
                    <mxGeometry relative="1" as="geometry"/>
                </mxCell>
                <mxCell id="77" value="Ngẫu nhiên đánh dấu cán bộ này là giám thị hành lang hoặc giám thị phòng" style="rounded=1;whiteSpace=wrap;html=1;" vertex="1" parent="5">
                    <mxGeometry x="610" y="1055" width="230" height="90" as="geometry"/>
                </mxCell>
                <mxCell id="83" style="edgeStyle=orthogonalEdgeStyle;html=1;entryX=0;entryY=0.5;entryDx=0;entryDy=0;" edge="1" parent="5" source="80" target="82">
                    <mxGeometry relative="1" as="geometry"/>
                </mxCell>
                <mxCell id="121" value="No" style="edgeStyle=elbowEdgeStyle;html=1;entryX=0;entryY=0.5;entryDx=0;entryDy=0;" edge="1" parent="5" source="80" target="123">
                    <mxGeometry x="-0.9208" relative="1" as="geometry">
                        <mxPoint x="1260" y="1280" as="targetPoint"/>
                        <Array as="points">
                            <mxPoint x="1025" y="1240"/>
                        </Array>
                        <mxPoint as="offset"/>
                    </mxGeometry>
                </mxCell>
                <mxCell id="80" value="Cán bộ được đánh dấu &lt;br&gt;là giám thị hành lang" style="rhombus;whiteSpace=wrap;html=1;" vertex="1" parent="5">
                    <mxGeometry x="940" y="1030" width="170" height="140" as="geometry"/>
                </mxCell>
                <mxCell id="86" style="edgeStyle=orthogonalEdgeStyle;html=1;" edge="1" parent="5" source="82" target="85">
                    <mxGeometry relative="1" as="geometry"/>
                </mxCell>
                <mxCell id="118" value="Yes" style="edgeStyle=elbowEdgeStyle;html=1;" edge="1" parent="5" source="82" target="80">
                    <mxGeometry relative="1" as="geometry"/>
                </mxCell>
                <mxCell id="82" value="S=S-1" style="rounded=1;whiteSpace=wrap;html=1;" vertex="1" parent="5">
                    <mxGeometry x="1170" y="1070" width="120" height="60" as="geometry"/>
                </mxCell>
                <mxCell id="90" style="edgeStyle=elbowEdgeStyle;html=1;entryX=1;entryY=0.5;entryDx=0;entryDy=0;" edge="1" parent="5" source="85" target="66">
                    <mxGeometry relative="1" as="geometry">
                        <Array as="points">
                            <mxPoint x="1420" y="1030"/>
                        </Array>
                    </mxGeometry>
                </mxCell>
                <mxCell id="85" value="Lưu dữ liệu cán bộ vào database" style="rounded=1;whiteSpace=wrap;html=1;" vertex="1" parent="5">
                    <mxGeometry x="1360" y="1070" width="120" height="60" as="geometry"/>
                </mxCell>
                <mxCell id="93" value="No" style="edgeStyle=elbowEdgeStyle;html=1;entryX=0;entryY=0.5;entryDx=0;entryDy=0;" edge="1" parent="5" source="91" target="70">
                    <mxGeometry relative="1" as="geometry"/>
                </mxCell>
                <mxCell id="91" value="Đã kết thúc truyền?" style="rhombus;whiteSpace=wrap;html=1;" vertex="1" parent="5">
                    <mxGeometry x="40" y="1060" width="100" height="80" as="geometry"/>
                </mxCell>
                <mxCell id="105" value="Yes" style="edgeStyle=elbowEdgeStyle;html=1;entryX=0;entryY=0.5;entryDx=0;entryDy=0;exitX=1;exitY=0.5;exitDx=0;exitDy=0;" edge="1" parent="5" source="101" target="104">
                    <mxGeometry x="-0.9378" relative="1" as="geometry">
                        <Array as="points">
                            <mxPoint x="460" y="1680"/>
                            <mxPoint x="1430" y="1400"/>
                        </Array>
                        <mxPoint y="-1" as="offset"/>
                    </mxGeometry>
                </mxCell>
                <mxCell id="116" value="No" style="edgeStyle=elbowEdgeStyle;html=1;entryX=0;entryY=0.5;entryDx=0;entryDy=0;exitX=0.5;exitY=1;exitDx=0;exitDy=0;" edge="1" parent="5" source="101" target="115">
                    <mxGeometry x="-0.8351" relative="1" as="geometry">
                        <Array as="points">
                            <mxPoint x="265" y="1780"/>
                        </Array>
                        <mxPoint as="offset"/>
                    </mxGeometry>
                </mxCell>
                <mxCell id="101" value="Vẫn còn giám thị hành lang&amp;nbsp;&lt;br&gt;trong database?" style="rhombus;whiteSpace=wrap;html=1;" vertex="1" parent="5">
                    <mxGeometry x="170" y="1580" width="190" height="150" as="geometry"/>
                </mxCell>
                <mxCell id="144" style="edgeStyle=elbowEdgeStyle;html=1;" edge="1" parent="5" source="104" target="143">
                    <mxGeometry relative="1" as="geometry"/>
                </mxCell>
                <mxCell id="104" value="Gán dữ liệu phòng với một cán bộ hành lang" style="rounded=1;whiteSpace=wrap;html=1;" vertex="1" parent="5">
                    <mxGeometry x="540" y="1690" width="165" height="60" as="geometry"/>
                </mxCell>
                <mxCell id="115" value="Gán dữ liệu phòng với một giám thị phòng thi" style="rounded=1;whiteSpace=wrap;html=1;" vertex="1" parent="5">
                    <mxGeometry x="525" y="1810" width="180" height="80" as="geometry"/>
                </mxCell>
                <mxCell id="126" value="No" style="edgeStyle=elbowEdgeStyle;html=1;entryX=0.75;entryY=1;entryDx=0;entryDy=0;" edge="1" parent="5" source="123" target="85">
                    <mxGeometry relative="1" as="geometry"/>
                </mxCell>
                <mxCell id="128" style="edgeStyle=elbowEdgeStyle;html=1;entryX=0.5;entryY=0;entryDx=0;entryDy=0;exitX=0;exitY=1;exitDx=0;exitDy=0;" edge="1" parent="5" source="123" target="127">
                    <mxGeometry relative="1" as="geometry">
                        <Array as="points">
                            <mxPoint x="1080" y="1300"/>
                        </Array>
                    </mxGeometry>
                </mxCell>
                <mxCell id="123" value="Có phòng trong database?" style="rhombus;whiteSpace=wrap;html=1;" vertex="1" parent="5">
                    <mxGeometry x="1350" y="1240" width="200" height="80" as="geometry"/>
                </mxCell>
                <mxCell id="131" style="edgeStyle=elbowEdgeStyle;html=1;entryX=0;entryY=0.5;entryDx=0;entryDy=0;" edge="1" parent="5" source="127" target="130">
                    <mxGeometry relative="1" as="geometry"/>
                </mxCell>
                <mxCell id="127" value="Gắn cán bộ với một phòng trong database" style="rounded=1;whiteSpace=wrap;html=1;" vertex="1" parent="5">
                    <mxGeometry x="1020" y="1345" width="120" height="60" as="geometry"/>
                </mxCell>
                <mxCell id="133" value="No" style="edgeStyle=elbowEdgeStyle;html=1;entryX=1;entryY=1;entryDx=0;entryDy=0;exitX=1;exitY=0;exitDx=0;exitDy=0;" edge="1" parent="5" source="130" target="85">
                    <mxGeometry x="-0.7268" relative="1" as="geometry">
                        <Array as="points">
                            <mxPoint x="1600" y="1240"/>
                        </Array>
                        <mxPoint x="-1" as="offset"/>
                    </mxGeometry>
                </mxCell>
                <mxCell id="136" value="Yes" style="edgeStyle=elbowEdgeStyle;html=1;entryX=0;entryY=0.5;entryDx=0;entryDy=0;exitX=0.5;exitY=1;exitDx=0;exitDy=0;" edge="1" parent="5" source="130" target="135">
                    <mxGeometry relative="1" as="geometry">
                        <mxPoint x="1450" y="1420" as="sourcePoint"/>
                        <Array as="points">
                            <mxPoint x="1450" y="1430"/>
                        </Array>
                    </mxGeometry>
                </mxCell>
                <mxCell id="130" value="Phòng đã đủ 2 người?" style="rhombus;whiteSpace=wrap;html=1;" vertex="1" parent="5">
                    <mxGeometry x="1375" y="1335" width="150" height="80" as="geometry"/>
                </mxCell>
                <mxCell id="139" style="edgeStyle=elbowEdgeStyle;html=1;entryX=0.5;entryY=0;entryDx=0;entryDy=0;dashed=1;dashPattern=8 8;" edge="1" parent="5" source="135" target="138">
                    <mxGeometry relative="1" as="geometry"/>
                </mxCell>
                <mxCell id="135" value="Lưu vào cơ sở dữ liệu" style="rounded=1;whiteSpace=wrap;html=1;" vertex="1" parent="5">
                    <mxGeometry x="1525" y="1405" width="95" height="60" as="geometry"/>
                </mxCell>
                <mxCell id="142" style="edgeStyle=elbowEdgeStyle;html=1;entryX=1;entryY=0.25;entryDx=0;entryDy=0;exitX=1.047;exitY=0.154;exitDx=0;exitDy=0;exitPerimeter=0;" edge="1" parent="5" source="138" target="66">
                    <mxGeometry relative="1" as="geometry">
                        <Array as="points">
                            <mxPoint x="1640" y="1280"/>
                        </Array>
                    </mxGeometry>
                </mxCell>
                <mxCell id="138" value="Xóa phòng thi khỏi cơ sở dữ liệu" style="rounded=1;whiteSpace=wrap;html=1;" vertex="1" parent="5">
                    <mxGeometry x="1534" y="1510" width="77" height="60" as="geometry"/>
                </mxCell>
                <mxCell id="148" value="No" style="edgeStyle=elbowEdgeStyle;html=1;" edge="1" parent="5" source="143" target="146">
                    <mxGeometry relative="1" as="geometry"/>
                </mxCell>
                <mxCell id="151" value="Yes" style="edgeStyle=elbowEdgeStyle;html=1;entryX=0;entryY=0.5;entryDx=0;entryDy=0;" edge="1" parent="5" source="143" target="149">
                    <mxGeometry relative="1" as="geometry">
                        <Array as="points">
                            <mxPoint x="1030" y="1820"/>
                        </Array>
                    </mxGeometry>
                </mxCell>
                <mxCell id="143" value="Cán bộ đó đã giám sát được R phòng?" style="rhombus;whiteSpace=wrap;html=1;" vertex="1" parent="5">
                    <mxGeometry x="900" y="1665" width="260" height="110" as="geometry"/>
                </mxCell>
                <mxCell id="146" value="Update dữ liệu cán bộ giám sát" style="rounded=1;whiteSpace=wrap;html=1;" vertex="1" parent="5">
                    <mxGeometry x="1280" y="1690" width="120" height="60" as="geometry"/>
                </mxCell>
                <mxCell id="149" value="Lưu dữ liệu cán bộ giám sát vào database" style="rounded=1;whiteSpace=wrap;html=1;" vertex="1" parent="5">
                    <mxGeometry x="1280" y="1800" width="120" height="60" as="geometry"/>
                </mxCell>
                <mxCell id="15" style="edgeStyle=elbowEdgeStyle;html=1;entryX=0;entryY=0.5;entryDx=0;entryDy=0;dashed=1;dashPattern=8 8;" parent="1" source="14" target="10" edge="1">
                    <mxGeometry relative="1" as="geometry"/>
                </mxCell>
                <mxCell id="21" style="edgeStyle=none;html=1;entryX=1;entryY=0.5;entryDx=0;entryDy=0;dashed=1;dashPattern=8 8;" parent="1" source="17" target="19" edge="1">
                    <mxGeometry relative="1" as="geometry"/>
                </mxCell>
                <mxCell id="28" style="edgeStyle=elbowEdgeStyle;html=1;dashed=1;dashPattern=8 8;exitX=1;exitY=0.5;exitDx=0;exitDy=0;entryX=-0.038;entryY=0.331;entryDx=0;entryDy=0;entryPerimeter=0;" parent="1" source="27" target="24" edge="1">
                    <mxGeometry relative="1" as="geometry">
                        <Array as="points">
                            <mxPoint x="-60" y="580"/>
                        </Array>
                    </mxGeometry>
                </mxCell>
                <mxCell id="27" value="" style="swimlane;startSize=0;" parent="1" vertex="1">
                    <mxGeometry x="-500" y="470" width="300" height="160" as="geometry"/>
                </mxCell>
                <mxCell id="23" value="PHONGTHI.XLSX" style="shape=note;whiteSpace=wrap;html=1;backgroundOutline=1;darkOpacity=0.05;" parent="27" vertex="1">
                    <mxGeometry x="20" y="35" width="120" height="90" as="geometry"/>
                </mxCell>
                <mxCell id="22" value="CANBO.XLSX" style="shape=note;whiteSpace=wrap;html=1;backgroundOutline=1;darkOpacity=0.05;" parent="27" vertex="1">
                    <mxGeometry x="170" y="35" width="100" height="90" as="geometry"/>
                </mxCell>
                <mxCell id="31" value="" style="swimlane;startSize=0;" parent="1" vertex="1">
                    <mxGeometry x="-410" y="760" width="210" height="480" as="geometry"/>
                </mxCell>
                <mxCell id="29" value="PHONGTHI.CSV" style="shape=note;whiteSpace=wrap;html=1;backgroundOutline=1;darkOpacity=0.05;" parent="31" vertex="1">
                    <mxGeometry x="40" y="145" width="130" height="90" as="geometry"/>
                </mxCell>
                <mxCell id="30" value="CANBO.CSV" style="shape=note;whiteSpace=wrap;html=1;backgroundOutline=1;darkOpacity=0.05;" parent="31" vertex="1">
                    <mxGeometry x="55" y="315" width="100" height="90" as="geometry"/>
                </mxCell>
                <mxCell id="32" style="edgeStyle=elbowEdgeStyle;html=1;entryX=1.005;entryY=0.097;entryDx=0;entryDy=0;dashed=1;dashPattern=8 8;entryPerimeter=0;" parent="1" source="24" target="31" edge="1">
                    <mxGeometry relative="1" as="geometry">
                        <Array as="points">
                            <mxPoint x="-60" y="710"/>
                        </Array>
                    </mxGeometry>
                </mxCell>
                <mxCell id="36" style="edgeStyle=elbowEdgeStyle;html=1;entryX=0;entryY=0.5;entryDx=0;entryDy=0;dashed=1;dashPattern=8 8;" parent="1" source="33" target="35" edge="1">
                    <mxGeometry relative="1" as="geometry"/>
                </mxCell>
                <mxCell id="68" style="edgeStyle=elbowEdgeStyle;html=1;entryX=0;entryY=0.25;entryDx=0;entryDy=0;dashed=1;dashPattern=8 8;" parent="1" source="54" target="66" edge="1">
                    <mxGeometry relative="1" as="geometry"/>
                </mxCell>
                <mxCell id="69" style="edgeStyle=elbowEdgeStyle;html=1;entryX=0;entryY=0.25;entryDx=0;entryDy=0;dashed=1;dashPattern=8 8;" parent="1" source="53" target="66" edge="1">
                    <mxGeometry relative="1" as="geometry"/>
                </mxCell>
                <mxCell id="103" style="edgeStyle=elbowEdgeStyle;html=1;dashed=1;dashPattern=8 8;entryX=1;entryY=0;entryDx=0;entryDy=0;exitX=0.009;exitY=0.19;exitDx=0;exitDy=0;exitPerimeter=0;" edge="1" parent="1" source="88" target="101">
                    <mxGeometry relative="1" as="geometry">
                        <mxPoint x="1020" y="1360" as="targetPoint"/>
                        <Array as="points">
                            <mxPoint x="2280" y="1130"/>
                        </Array>
                    </mxGeometry>
                </mxCell>
                <mxCell id="145" style="edgeStyle=elbowEdgeStyle;html=1;entryX=0.5;entryY=0;entryDx=0;entryDy=0;dashed=1;" edge="1" parent="1" source="88" target="143">
                    <mxGeometry relative="1" as="geometry">
                        <Array as="points">
                            <mxPoint x="2390" y="1450"/>
                        </Array>
                    </mxGeometry>
                </mxCell>
                <mxCell id="88" value="Cán bộ" style="shape=cylinder3;whiteSpace=wrap;html=1;boundedLbl=1;backgroundOutline=1;size=15;" vertex="1" parent="1">
                    <mxGeometry x="2500" y="1000" width="200" height="190" as="geometry"/>
                </mxCell>
                <mxCell id="89" style="edgeStyle=elbowEdgeStyle;html=1;dashed=1;dashPattern=8 8;entryX=0.009;entryY=0.849;entryDx=0;entryDy=0;entryPerimeter=0;" edge="1" parent="1" source="85" target="88">
                    <mxGeometry relative="1" as="geometry"/>
                </mxCell>
                <mxCell id="97" style="edgeStyle=elbowEdgeStyle;html=1;entryX=0;entryY=0.5;entryDx=0;entryDy=0;dashed=1;dashPattern=8 8;" edge="1" parent="1" source="29" target="40">
                    <mxGeometry relative="1" as="geometry"/>
                </mxCell>
                <mxCell id="98" style="edgeStyle=elbowEdgeStyle;html=1;entryX=0;entryY=0.5;entryDx=0;entryDy=0;dashed=1;dashPattern=8 8;" edge="1" parent="1" source="30" target="42">
                    <mxGeometry relative="1" as="geometry"/>
                </mxCell>
                <mxCell id="124" style="edgeStyle=elbowEdgeStyle;html=1;entryX=1;entryY=0.5;entryDx=0;entryDy=0;dashed=1;dashPattern=8 8;exitX=-0.003;exitY=0.194;exitDx=0;exitDy=0;exitPerimeter=0;" edge="1" parent="1" source="109" target="123">
                    <mxGeometry relative="1" as="geometry">
                        <Array as="points">
                            <mxPoint x="2420" y="1370"/>
                        </Array>
                    </mxGeometry>
                </mxCell>
                <mxCell id="132" style="edgeStyle=elbowEdgeStyle;html=1;entryX=1;entryY=0.5;entryDx=0;entryDy=0;dashed=1;dashPattern=8 8;exitX=0;exitY=0;exitDx=0;exitDy=135;exitPerimeter=0;" edge="1" parent="1" source="109" target="130">
                    <mxGeometry relative="1" as="geometry">
                        <Array as="points">
                            <mxPoint x="2200" y="1465"/>
                        </Array>
                    </mxGeometry>
                </mxCell>
                <mxCell id="109" value="Phòng thi" style="shape=cylinder3;whiteSpace=wrap;html=1;boundedLbl=1;backgroundOutline=1;size=15;" vertex="1" parent="1">
                    <mxGeometry x="2500" y="1300" width="190" height="200" as="geometry"/>
                </mxCell>
                <mxCell id="134" value="Giám thị phòng thi" style="shape=cylinder3;whiteSpace=wrap;html=1;boundedLbl=1;backgroundOutline=1;size=15;" vertex="1" parent="1">
                    <mxGeometry x="2500" y="1620" width="200" height="210" as="geometry"/>
                </mxCell>
                <mxCell id="137" style="edgeStyle=elbowEdgeStyle;html=1;entryX=0;entryY=0.5;entryDx=0;entryDy=0;entryPerimeter=0;dashed=1;dashPattern=8 8;" edge="1" parent="1" source="135" target="134">
                    <mxGeometry relative="1" as="geometry">
                        <Array as="points">
                            <mxPoint x="2460" y="1620"/>
                        </Array>
                    </mxGeometry>
                </mxCell>
                <mxCell id="141" style="edgeStyle=elbowEdgeStyle;html=1;entryX=0.001;entryY=0.846;entryDx=0;entryDy=0;entryPerimeter=0;dashed=1;dashPattern=8 8;" edge="1" parent="1" source="138" target="109">
                    <mxGeometry relative="1" as="geometry"/>
                </mxCell>
                <mxCell id="147" style="edgeStyle=elbowEdgeStyle;html=1;entryX=0;entryY=0;entryDx=0;entryDy=135;entryPerimeter=0;dashed=1;" edge="1" parent="1" source="146" target="88">
                    <mxGeometry relative="1" as="geometry">
                        <Array as="points">
                            <mxPoint x="2340" y="1460"/>
                        </Array>
                    </mxGeometry>
                </mxCell>
                <mxCell id="150" value="Giám sát hành lang" style="shape=cylinder3;whiteSpace=wrap;html=1;boundedLbl=1;backgroundOutline=1;size=15;" vertex="1" parent="1">
                    <mxGeometry x="2505" y="1940" width="190" height="230" as="geometry"/>
                </mxCell>
                <mxCell id="152" style="edgeStyle=elbowEdgeStyle;html=1;entryX=0;entryY=0;entryDx=0;entryDy=65;entryPerimeter=0;dashed=1;dashPattern=8 8;" edge="1" parent="1" source="149" target="150">
                    <mxGeometry relative="1" as="geometry">
                        <Array as="points">
                            <mxPoint x="2370" y="1950"/>
                        </Array>
                    </mxGeometry>
                </mxCell>
            </root>
        </mxGraphModel>
    </diagram>
</mxfile>